<svg width="167" height="26" viewBox="0 0 167 26" fill="none" xmlns="http://www.w3.org/2000/svg">
<path d="M13.724 26H7.892C7.436 26 7.1 25.904 6.884 25.712C6.692 25.496 6.596 25.16 6.596 24.704V7.028H1.304C0.848 7.028 0.512 6.932 0.296 6.74C0.104 6.524 0.00800003 6.188 0.00800003 5.732V1.376C0.00800003 0.92 0.104 0.595999 0.296 0.403999C0.512 0.187999 0.848 0.079999 1.304 0.079999H20.312C20.768 0.079999 21.092 0.187999 21.284 0.403999C21.5 0.595999 21.608 0.92 21.608 1.376V5.732C21.608 6.188 21.5 6.524 21.284 6.74C21.092 6.932 20.768 7.028 20.312 7.028H15.02V24.704C15.02 25.16 14.912 25.496 14.696 25.712C14.504 25.904 14.18 26 13.724 26ZM33.0636 7.64L31.3716 13.112H37.0236L35.3316 7.64C35.2356 7.424 35.1276 7.268 35.0076 7.172C34.9116 7.076 34.7916 7.028 34.6476 7.028H33.7476C33.6036 7.028 33.4716 7.076 33.3516 7.172C33.2556 7.268 33.1596 7.424 33.0636 7.64ZM31.0116 24.704C31.0116 25.16 30.9036 25.496 30.6876 25.712C30.4956 25.904 30.1716 26 29.7156 26H24.4236C23.9676 26 23.6316 25.904 23.4156 25.712C23.2236 25.496 23.1276 25.16 23.1276 24.704V15.2C23.1276 14.48 23.2356 13.652 23.4516 12.716C23.6916 11.78 24.0516 10.688 24.5316 9.44L27.6636 1.268C27.8076 0.859998 28.0236 0.559999 28.3116 0.368C28.6236 0.175999 29.0196 0.079999 29.4996 0.079999H39.1836C39.6396 0.079999 40.0116 0.175999 40.2996 0.368C40.6116 0.559999 40.8396 0.859998 40.9836 1.268L44.1156 9.44C44.5956 10.688 44.9436 11.78 45.1596 12.716C45.3996 13.652 45.5196 14.48 45.5196 15.2V24.704C45.5196 25.16 45.4116 25.496 45.1956 25.712C45.0036 25.904 44.6796 26 44.2236 26H38.7876C38.3076 26 37.9476 25.904 37.7076 25.712C37.4916 25.496 37.3836 25.16 37.3836 24.704V19.664H31.0116V24.704ZM61.9885 26H50.6125C50.1565 26 49.8205 25.904 49.6045 25.712C49.4125 25.496 49.3165 25.16 49.3165 24.704V20.492C49.3165 20.036 49.4125 19.712 49.6045 19.52C49.8205 19.304 50.1565 19.196 50.6125 19.196H60.2965C60.6085 19.196 60.8365 19.1 60.9805 18.908C61.1485 18.692 61.2325 18.44 61.2325 18.152C61.2325 17.744 61.1485 17.444 60.9805 17.252C60.8365 17.06 60.6085 16.952 60.2965 16.928L54.8965 16.172C53.2165 15.932 51.8605 15.38 50.8285 14.516C49.8205 13.652 49.3165 12.212 49.3165 10.196V6.416C49.3165 4.376 49.9765 2.816 51.2965 1.736C52.6165 0.631999 54.4405 0.079999 56.7685 0.079999H66.8485C67.3045 0.079999 67.6285 0.187999 67.8205 0.403999C68.0365 0.595999 68.1445 0.92 68.1445 1.376V5.66C68.1445 6.116 68.0365 6.452 67.8205 6.668C67.6285 6.86 67.3045 6.956 66.8485 6.956H58.4605C58.1485 6.956 57.9085 7.064 57.7405 7.28C57.5725 7.472 57.4885 7.724 57.4885 8.036C57.4885 8.348 57.5725 8.612 57.7405 8.828C57.9085 9.044 58.1485 9.164 58.4605 9.188L63.8245 9.908C65.5045 10.148 66.8605 10.7 67.8925 11.564C68.9245 12.428 69.4405 13.868 69.4405 15.884V19.664C69.4405 21.704 68.7685 23.276 67.4245 24.38C66.1045 25.46 64.2925 26 61.9885 26ZM80.2545 26H74.6745C74.2185 26 73.8825 25.904 73.6665 25.712C73.4745 25.496 73.3785 25.16 73.3785 24.704V1.376C73.3785 0.92 73.4745 0.595999 73.6665 0.403999C73.8825 0.187999 74.2185 0.079999 74.6745 0.079999H80.2545C80.7105 0.079999 81.0345 0.187999 81.2265 0.403999C81.4425 0.595999 81.5505 0.92 81.5505 1.376V9.656H82.9905L86.6985 1.268C86.8665 0.835999 87.0945 0.535999 87.3825 0.368C87.6705 0.175999 88.0425 0.079999 88.4985 0.079999H94.0425C94.4505 0.079999 94.7265 0.187999 94.8705 0.403999C95.0145 0.595999 95.0025 0.883999 94.8345 1.268L91.1625 9.656C92.5065 9.728 93.5745 10.208 94.3665 11.096C95.1825 11.96 95.5905 13.112 95.5905 14.552V24.704C95.5905 25.16 95.4825 25.496 95.2665 25.712C95.0745 25.904 94.7505 26 94.2945 26H88.7505C88.2945 26 87.9585 25.904 87.7425 25.712C87.5505 25.496 87.4545 25.16 87.4545 24.704V17.684C87.4545 17.3 87.3585 17 87.1665 16.784C86.9745 16.568 86.6865 16.46 86.3025 16.46H81.5505V24.704C81.5505 25.16 81.4425 25.496 81.2265 25.712C81.0345 25.904 80.7105 26 80.2545 26ZM100.958 26C100.502 26 100.166 25.904 99.9499 25.712C99.7579 25.496 99.6619 25.16 99.6619 24.704V20.42C99.6619 19.964 99.7579 19.64 99.9499 19.448C100.166 19.232 100.502 19.124 100.958 19.124H104.522V7.028H100.958C100.502 7.028 100.166 6.932 99.9499 6.74C99.7579 6.524 99.6619 6.188 99.6619 5.732V1.376C99.6619 0.92 99.7579 0.595999 99.9499 0.403999C100.166 0.187999 100.502 0.079999 100.958 0.079999H116.294C116.75 0.079999 117.074 0.187999 117.266 0.403999C117.482 0.595999 117.59 0.92 117.59 1.376V5.732C117.59 6.188 117.482 6.524 117.266 6.74C117.074 6.932 116.75 7.028 116.294 7.028H112.802V19.124H116.294C116.75 19.124 117.074 19.232 117.266 19.448C117.482 19.64 117.59 19.964 117.59 20.42V24.704C117.59 25.16 117.482 25.496 117.266 25.712C117.074 25.904 116.75 26 116.294 26H100.958ZM134.275 26H128.443C127.987 26 127.651 25.904 127.435 25.712C127.243 25.496 127.147 25.16 127.147 24.704V7.028H121.855C121.399 7.028 121.063 6.932 120.847 6.74C120.655 6.524 120.559 6.188 120.559 5.732V1.376C120.559 0.92 120.655 0.595999 120.847 0.403999C121.063 0.187999 121.399 0.079999 121.855 0.079999H140.863C141.319 0.079999 141.643 0.187999 141.835 0.403999C142.051 0.595999 142.159 0.92 142.159 1.376V5.732C142.159 6.188 142.051 6.524 141.835 6.74C141.643 6.932 141.319 7.028 140.863 7.028H135.571V24.704C135.571 25.16 135.463 25.496 135.247 25.712C135.055 25.904 134.731 26 134.275 26ZM153.614 7.64L151.922 13.112H157.574L155.882 7.64C155.786 7.424 155.678 7.268 155.558 7.172C155.462 7.076 155.342 7.028 155.198 7.028H154.298C154.154 7.028 154.022 7.076 153.902 7.172C153.806 7.268 153.71 7.424 153.614 7.64ZM151.562 24.704C151.562 25.16 151.454 25.496 151.238 25.712C151.046 25.904 150.722 26 150.266 26H144.974C144.518 26 144.182 25.904 143.966 25.712C143.774 25.496 143.678 25.16 143.678 24.704V15.2C143.678 14.48 143.786 13.652 144.002 12.716C144.242 11.78 144.602 10.688 145.082 9.44L148.214 1.268C148.358 0.859998 148.574 0.559999 148.862 0.368C149.174 0.175999 149.57 0.079999 150.05 0.079999H159.734C160.19 0.079999 160.562 0.175999 160.85 0.368C161.162 0.559999 161.39 0.859998 161.534 1.268L164.666 9.44C165.146 10.688 165.494 11.78 165.71 12.716C165.95 13.652 166.07 14.48 166.07 15.2V24.704C166.07 25.16 165.962 25.496 165.746 25.712C165.554 25.904 165.23 26 164.774 26H159.338C158.858 26 158.498 25.904 158.258 25.712C158.042 25.496 157.934 25.16 157.934 24.704V19.664H151.562V24.704Z" fill="white"/>
</svg>
